<svg width="300" height="300" viewBox="0 0 300 300" fill="none" xmlns="http://www.w3.org/2000/svg">
<path d="M150 149.994H300C300 175.26 293.618 200.116 281.446 222.257L150 149.994Z" fill="#E87D7D"/>
<path d="M150 149.994L281.446 222.257C270.042 243.001 253.891 260.751 234.312 274.056C214.734 287.361 192.285 295.844 168.8 298.811L150 149.994Z" fill="#E8C47D"/>
<path d="M150 149.994L168.8 298.811C130.949 303.593 92.6976 293.772 61.832 271.347L150 149.994Z" fill="#C4E87D"/>
<path d="M150 149.994L61.8322 271.346C38.8042 254.615 21.0119 231.678 10.5336 205.212C0.0552023 178.747 -2.67669 149.847 2.65696 121.887L150 149.994Z" fill="#7DE87D"/>
<path d="M150 149.994L2.65723 121.887C6.79464 100.198 15.6693 79.6894 28.6477 61.8262L150 149.994Z" fill="#7DE8C4"/>
<path d="M150 149.993L28.6475 61.8256C47.2666 36.1985 73.5209 17.1236 103.647 7.33496L150 149.993Z" fill="#7DC4E8"/>
<path d="M150 149.994L103.647 7.33565C133.774 -2.45303 166.226 -2.45303 196.352 7.33565L150 149.994Z" fill="#7D7DE8"/>
<path d="M150 149.993L196.352 7.33496C226.479 17.1236 252.733 36.1985 271.352 61.8256L150 149.993Z" fill="#C47DE8"/>
<path d="M150 149.994L271.352 61.8262C289.972 87.4533 300 118.317 300 149.994H150Z" fill="#E87DC4"/>
<path d="M150 224.994C191.421 224.994 225 191.415 225 149.994C225 108.573 191.421 74.9941 150 74.9941C108.579 74.9941 75 108.573 75 149.994C75 191.415 108.579 224.994 150 224.994Z" fill="white"/>
</svg>
